<svg width="52" height="52" viewBox="0 0 52 52" fill="none" xmlns="http://www.w3.org/2000/svg">
<path d="M33.7492 13.8346H18.2508C15.7771 13.8346 13.7645 15.8472 13.7645 18.321V33.8194C13.7645 36.2931 15.7771 38.3063 18.2508 38.3063H33.7492C36.223 38.3063 38.2362 36.2937 38.2362 33.8194V18.321C38.2362 15.8472 36.2235 13.8346 33.7492 13.8346ZM26 34.1264C21.5583 34.1264 17.9444 30.5125 17.9444 26.0702C17.9444 21.6284 21.5583 18.0145 26 18.0145C30.4424 18.0145 34.0563 21.6284 34.0563 26.0702C34.0563 30.5119 30.4418 34.1264 26 34.1264ZM34.3152 19.6801C33.2637 19.6801 32.4086 18.825 32.4086 17.7741C32.4086 16.7232 33.2637 15.8681 34.3152 15.8681C35.3661 15.8681 36.2212 16.7232 36.2212 17.7741C36.2212 18.825 35.3661 19.6801 34.3152 19.6801Z" fill="url(#paint0_linear_60_12)"/>
<path d="M26 21.4188C23.4359 21.4188 21.3479 23.5056 21.3479 26.0697C21.3479 28.635 23.4359 30.7224 26 30.7224C28.5653 30.7224 30.6515 28.635 30.6515 26.0697C30.6515 23.5062 28.5647 21.4188 26 21.4188Z" fill="url(#paint1_linear_60_12)"/>
<path d="M26 0C11.6412 0 0 11.6412 0 26C0 40.3588 11.6412 52 26 52C40.3588 52 52 40.3588 52 26C52 11.6412 40.3588 0 26 0ZM41.6397 33.8193C41.6397 38.1707 38.1006 41.7098 33.7492 41.7098H18.2508C13.9 41.7098 10.3603 38.1707 10.3603 33.8193V18.3209C10.3603 13.9701 13.9 10.4304 18.2508 10.4304H33.7492C38.1006 10.4304 41.6397 13.9701 41.6397 18.3209V33.8193Z" fill="url(#paint2_linear_60_12)"/>
<defs>
<linearGradient id="paint0_linear_60_12" x1="15.4075" y1="36.712" x2="38.0822" y2="17.0834" gradientUnits="userSpaceOnUse">
<stop stop-color="#FFDD55"/>
<stop offset="0.5" stop-color="#FF543E"/>
<stop offset="1" stop-color="#C837AB"/>
</linearGradient>
<linearGradient id="paint1_linear_60_12" x1="21.9726" y1="30.1162" x2="30.593" y2="22.6539" gradientUnits="userSpaceOnUse">
<stop stop-color="#FFDD55"/>
<stop offset="0.5" stop-color="#FF543E"/>
<stop offset="1" stop-color="#C837AB"/>
</linearGradient>
<linearGradient id="paint2_linear_60_12" x1="3.49137" y1="48.6122" x2="51.6729" y2="6.90345" gradientUnits="userSpaceOnUse">
<stop stop-color="#FFDD55"/>
<stop offset="0.5" stop-color="#FF543E"/>
<stop offset="1" stop-color="#C837AB"/>
</linearGradient>
</defs>
</svg>
