<svg width="52" height="52" viewBox="0 0 52 52" fill="none" xmlns="http://www.w3.org/2000/svg">
<mask id="mask0_60_2" style="mask-type:alpha" maskUnits="userSpaceOnUse" x="0" y="0" width="52" height="52">
<circle cx="26" cy="26" r="26" fill="#C4C4C4"/>
</mask>
<g mask="url(#mask0_60_2)">
<path d="M33.783 12.0248C28.6187 11.0424 23.3814 11.0424 18.216 12.0248C15.9567 12.528 13.1145 15.2516 12.5588 17.4424C11.6345 21.6813 11.6345 25.9784 12.5588 30.2173C13.1145 32.408 15.9567 35.1317 18.216 35.6349C18.2165 35.635 18.2171 35.6351 18.2177 35.6352C18.3183 35.6549 18.3917 35.7421 18.3917 35.8447V42.0544C18.3917 42.3647 18.7705 42.5176 18.9862 42.2928L21.9357 39.2657C21.9357 39.2657 24.2861 36.8529 24.7087 36.4191C24.75 36.3766 24.8071 36.3537 24.8662 36.3553C27.8442 36.4378 30.8253 36.1973 33.783 35.635C36.0422 35.1318 38.8856 32.4081 39.4402 30.2174C40.3655 25.9785 40.3655 21.6814 39.4402 17.4425C38.8855 15.2516 36.0433 12.528 33.783 12.0248ZM33.8617 30.5334C33.4099 31.4928 32.7524 32.291 31.804 32.8004C31.5364 32.9442 31.2166 32.9906 30.9146 33.0836C30.5672 32.9782 30.2362 32.9073 29.9288 32.7798C26.7435 31.4582 23.812 29.7533 21.4899 27.1398C20.1694 25.6536 19.1358 23.9758 18.2622 22.2001C17.8479 21.358 17.4987 20.483 17.1428 19.6136C16.8182 18.8208 17.2963 18.0018 17.7996 17.4045C18.2719 16.8439 18.8796 16.4149 19.5377 16.0987C20.0514 15.8519 20.5582 15.9942 20.9333 16.4296C21.7444 17.3709 22.4893 18.3604 23.0926 19.4516C23.4635 20.1227 23.3618 20.9431 22.6895 21.3999C22.5261 21.5109 22.3772 21.6412 22.225 21.7666C22.0915 21.8765 21.9658 21.9875 21.8743 22.1363C21.7071 22.4084 21.6991 22.7296 21.8068 23.0256C22.6358 25.304 24.0333 27.0757 26.3265 28.0299C26.6936 28.1826 27.062 28.3604 27.4847 28.3111C28.1928 28.2283 28.422 27.4518 28.9181 27.046C29.403 26.6495 30.0227 26.6443 30.5451 26.9748C31.0676 27.3055 31.5741 27.6605 32.0775 28.0192C32.5717 28.3713 33.0637 28.7158 33.5195 29.1172C33.9575 29.5031 34.1085 30.0095 33.8617 30.5334ZM29.749 23.1089C29.5513 23.1125 29.629 23.1086 29.7042 23.1064C29.3855 23.0952 29.2121 22.9076 29.1779 22.6026C29.1529 22.3798 29.1332 22.154 29.08 21.9372C28.9753 21.5102 28.7483 21.1145 28.3892 20.8529C28.2197 20.7293 28.0275 20.6392 27.8263 20.5812C27.5705 20.5074 27.305 20.5277 27.0499 20.4652C26.7729 20.3974 26.6196 20.1729 26.6631 19.913C26.7027 19.6765 26.9328 19.4919 27.1913 19.5106C28.8066 19.6272 29.9611 20.4623 30.1259 22.3641C30.1375 22.4982 30.1512 22.64 30.1214 22.7683C30.073 22.977 29.9239 23.0856 29.7732 23.1054C29.7855 23.1056 29.7831 23.1066 29.749 23.1089ZM28.7446 18.7594C28.2489 18.5168 27.7128 18.3659 27.1695 18.276C26.932 18.2367 26.6921 18.2129 26.4535 18.1797C26.1643 18.1395 26.0101 17.9553 26.0237 17.6703C26.0364 17.4033 26.2316 17.2113 26.5225 17.2277C27.4787 17.282 28.4022 17.4887 29.2523 17.9388C30.981 18.8543 31.9684 20.2993 32.2566 22.2287C32.2697 22.3161 32.2906 22.4027 32.2972 22.4905C32.3137 22.707 32.3238 22.924 32.3405 23.2096C32.3336 23.2616 32.33 23.3839 32.2996 23.4991C32.1891 23.9174 31.5549 23.9698 31.4088 23.5476C31.3656 23.4224 31.3591 23.2798 31.3589 23.145C31.3574 22.2625 31.1656 21.3809 30.7206 20.6132C30.2631 19.8242 29.5641 19.1609 28.7446 18.7594ZM34.0859 24.7226C33.7519 24.7265 33.6017 24.4471 33.58 24.1476C33.5371 23.5547 33.5074 22.9592 33.4256 22.3712C32.9943 19.2675 30.5194 16.6998 27.4302 16.1488C26.9653 16.0658 26.4894 16.044 26.0186 15.9946C25.7209 15.9634 25.3311 15.9453 25.2651 15.5753C25.2098 15.2651 25.4716 15.018 25.767 15.0022C25.8474 14.9978 25.9282 15.0015 26.0088 15.0018C30.0098 15.114 26.253 15.0105 26.0196 15.0024C30.1811 15.1237 33.5979 17.8872 34.3307 22.0027C34.4556 22.7045 34.5001 23.4221 34.5557 24.1345C34.5789 24.434 34.4093 24.7187 34.0859 24.7226Z" fill="#874D9F"/>
<path d="M0 0V52H52V0H0ZM42.4456 30.8968L42.4354 30.9378C41.6047 34.2959 37.8599 37.8992 34.4208 38.6489L34.382 38.6569C31.6013 39.1874 28.8001 39.4522 26.0001 39.4522C25.1759 39.4522 24.3517 39.4265 23.528 39.3804L19.7301 43.3282C18.7899 44.3072 17.1366 43.6409 17.1366 42.2842V38.5357C13.8259 37.5902 10.3599 34.1526 9.56361 30.9377L9.55448 30.8966C8.52756 26.207 8.52756 21.4513 9.55448 16.7616L9.56361 16.7206C10.3954 13.3625 14.1403 9.75918 17.5782 9.00953L17.6181 9.00154C23.1794 7.94039 28.8195 7.94039 34.382 9.00154L34.4208 9.00953C37.8599 9.75918 41.6047 13.3625 42.4354 16.7206L42.4456 16.7616C43.4726 21.4514 43.4726 26.2072 42.4456 30.8968Z" fill="#874D9F"/>
</g>
</svg>
