<svg width="52" height="52" viewBox="0 0 52 52" fill="none" xmlns="http://www.w3.org/2000/svg">
<path d="M26 0C11.6411 0 0 11.6406 0 26C0 40.3594 11.6411 52 26 52C40.3589 52 52 40.3594 52 26C52 11.6406 40.3589 0 26 0ZM39.1886 28.812C40.4004 29.9956 41.6825 31.1096 42.7703 32.4156C43.2523 32.9933 43.7066 33.5907 44.0524 34.2625C44.546 35.2206 44.1003 36.2713 43.2427 36.3282L37.9161 36.3271C36.5404 36.441 35.4456 35.8861 34.5227 34.9456C33.7859 34.1961 33.1023 33.3954 32.3927 32.6204C32.1028 32.3022 31.7974 32.0027 31.4335 31.7671C30.7074 31.2947 30.0765 31.4394 29.6605 32.198C29.2365 32.9699 29.1397 33.8253 29.0993 34.6844C29.0413 35.9404 28.6625 36.2686 27.4023 36.3277C24.7094 36.4537 22.1544 36.0452 19.7797 34.6876C17.6848 33.4901 16.0633 31.8001 14.6504 29.8866C11.8991 26.1564 9.79196 22.0624 7.89868 17.8508C7.47257 16.9023 7.78431 16.3948 8.83069 16.3751C10.5692 16.3416 12.3076 16.3458 14.0461 16.3735C14.7536 16.3847 15.2218 16.7895 15.4936 17.4571C16.4331 19.7685 17.5848 21.9677 19.028 24.0072C19.4126 24.5504 19.8052 25.0919 20.3643 25.4755C20.9814 25.8989 21.4517 25.759 21.7427 25.0701C21.9288 24.6323 22.0092 24.1642 22.0496 23.695C22.1879 22.0879 22.2044 20.4813 21.965 18.8807C21.8161 17.879 21.2527 17.2321 20.2542 17.0427C19.7456 16.9464 19.8201 16.7581 20.0675 16.4676C20.4968 15.9655 20.8989 15.6548 21.7028 15.6548L27.7209 15.6537C28.6694 15.8399 28.8822 16.2655 29.0109 17.2209L29.0163 23.9088C29.0051 24.2785 29.2019 25.3744 29.8658 25.6164C30.3978 25.792 30.7489 25.3654 31.067 25.0286C32.5102 23.4971 33.5385 21.6895 34.4594 19.8185C34.8658 18.9934 35.2164 18.1396 35.5568 17.2842C35.81 16.6517 36.2037 16.3405 36.9176 16.3511L42.7129 16.3581C42.8836 16.3581 43.0571 16.3597 43.2262 16.3889C44.2029 16.5559 44.4705 16.9762 44.1683 17.929C43.6928 19.4259 42.7687 20.6729 41.8655 21.923C40.8973 23.2614 39.8647 24.553 38.9061 25.8973C38.0252 27.1262 38.0949 27.7449 39.1886 28.812Z" fill="#2787F5"/>
</svg>
