<svg width="52" height="52" viewBox="0 0 52 52" fill="none" xmlns="http://www.w3.org/2000/svg">
<path d="M26 0C11.6428 0 0 11.6428 0 26C0 40.3572 11.6428 52 26 52C40.3572 52 52 40.3572 52 26C52 11.6428 40.3572 0 26 0ZM26.5511 41.138C26.5507 41.138 26.5515 41.138 26.5511 41.138H26.5447C23.9402 41.1368 21.3809 40.4838 19.108 39.2444L10.8589 41.4077L13.0667 33.3462C11.7047 30.9873 10.9882 28.3109 10.9894 25.5692C10.993 16.9919 17.9738 10.0138 26.5511 10.0138C30.7135 10.0154 34.6209 11.6357 37.5587 14.5758C40.4969 17.5164 42.1139 21.4249 42.1123 25.5815C42.1088 34.1591 35.1271 41.138 26.5511 41.138Z" fill="#62B651"/>
<path d="M26.5562 12.6412C19.4218 12.6412 13.6197 18.441 13.6165 25.5702C13.6157 28.0133 14.2997 30.3925 15.5942 32.4511L15.9016 32.9402L14.5948 37.7117L19.4901 36.4279L19.9626 36.708C21.9482 37.8863 24.2246 38.5095 26.5455 38.5103H26.5506C33.6795 38.5103 39.4816 32.7101 39.4848 25.5805C39.486 22.1254 38.1419 18.877 35.7 16.4332C33.2581 13.9893 30.0105 12.6424 26.5562 12.6412ZM34.1639 31.1292C33.8397 32.0369 32.2865 32.8657 31.5395 32.9775C30.8694 33.0775 30.022 33.1192 29.0905 32.8236C28.5256 32.6443 27.8015 32.4051 26.8736 32.0048C22.9733 30.321 20.4259 26.395 20.2315 26.1356C20.0371 25.8761 18.6438 24.0277 18.6438 22.1143C18.6438 20.2013 19.6484 19.2607 20.0046 18.8719C20.3613 18.4827 20.7826 18.3855 21.0417 18.3855C21.3007 18.3855 21.5602 18.3878 21.7867 18.399C22.0256 18.4109 22.3461 18.3081 22.6615 19.0663C22.9856 19.8446 23.7632 21.7577 23.8604 21.9521C23.9576 22.1469 24.0223 22.3738 23.893 22.6332C23.7632 22.8927 23.3324 23.4525 22.921 23.9627C22.7484 24.1765 22.5234 24.3669 22.7504 24.7561C22.9769 25.1449 23.7577 26.418 24.9133 27.4487C26.3987 28.773 27.6516 29.1832 28.0404 29.378C28.4288 29.5724 28.6557 29.5399 28.8826 29.2808C29.1091 29.0214 29.8546 28.1458 30.1137 27.7566C30.3727 27.3674 30.6322 27.4325 30.9885 27.5622C31.3451 27.6915 33.2565 28.6322 33.6453 28.8266C34.0341 29.0214 34.2932 29.1186 34.3904 29.2808C34.488 29.4431 34.488 30.2211 34.1639 31.1292Z" fill="#62B651"/>
</svg>
